# xmcd
# 
# Track frame offsets:
#     150
#     15123
#     26130
#     40651
#     57739
#     68133
#     81198
#     93408
#     100754
#     113926
#     129209
#     139435
#     161032
#     171291
#     181673
#     197076
# 
# Disc length: 2817
# 
# Revision: 7
# Processed by: cddbd v1.5.2PL0 Copyright (c) Steve Scherf et al.
# Submitted via: fre:ac v1.0.31
# 
DISCID=d30aff10
DTITLE=Steve Martin - The Crow (New Songs For The Five-String Banjo)
DYEAR=2009
DGENRE=Bluegrass
TTITLE0=Daddy Played The Banjo
TTITLE1=Pitkin County Turnaround
TTITLE2=Hoedown At Alice's
TTITLE3=Late For School
TTITLE4=Tin Roof
TTITLE5=Words Unspoken
TTITLE6=Pretty Flowers
TTITLE7=Wally On The Run
TTITLE8=Freddie's Lilt
TTITLE9=Saga Of The Old West
TTITLE10=Clawhammer Medley
TTITLE11=Calico Train
TTITLE12=Banana Banjo
TTITLE13=Blue River Waltz
TTITLE14=The Crow
TTITLE15=Calico Train [Instrumental]
EXTD=
EXTT0=
EXTT1=
EXTT2=
EXTT3=
EXTT4=
EXTT5=
EXTT6=
EXTT7=
EXTT8=
EXTT9=
EXTT10=
EXTT11=
EXTT12=
EXTT13=
EXTT14=
EXTT15=
PLAYORDER=
